# xmcd
# 
# Track frame offsets:
#     1248
#     17943
#     35779
#     50729
#     68252
#     86563
#     107054
#     124608
#     142520
#     159685
#     176471
#     199011
# 
# Disc length: 2903
# 
# Revision: 2
# Processed by: cddbd v1.5.2PL0 Copyright (c) Steve Scherf et al.
# Submitted via: fre:ac v1.1beta1pre5
# 
DISCID=9f0b470c
DTITLE=van velzen - Unwind
DYEAR=2007
DGENRE=Pop
TTITLE0=Unwind
TTITLE1=Baby Get Higher
TTITLE2=Burn
TTITLE3=Waiting For The End
TTITLE4=I'll Stand Tall
TTITLE5=Rise
TTITLE6=Deep
TTITLE7=Chasing The Sun
TTITLE8=Fool For Life
TTITLE9=Shine A Little Light
TTITLE10=Someday
TTITLE11=One Angry Dwarf
EXTD=
EXTT0=
EXTT1=
EXTT2=
EXTT3=
EXTT4=
EXTT5=
EXTT6=
EXTT7=
EXTT8=
EXTT9=
EXTT10=
EXTT11=
PLAYORDER=
